<?xml version="1.0" encoding="UTF-8"?>
<!DOCTYPE svg PUBLIC "-//W3C//DTD SVG 1.1//EN" "http://www.w3.org/Graphics/SVG/1.1/DTD/svg11.dtd">
<!-- Creator: CorelDRAW 2020 (64-Bit Evaluation Version) -->
<svg xmlns="http://www.w3.org/2000/svg" xml:space="preserve" width="120.2mm" height="39.1292mm" version="1.1" style="shape-rendering:geometricPrecision; text-rendering:geometricPrecision; image-rendering:optimizeQuality; fill-rule:evenodd; clip-rule:evenodd"
viewBox="0 0 12005.76 3908.28"
 xmlns:xlink="http://www.w3.org/1999/xlink"
 xmlns:xodm="http://www.corel.com/coreldraw/odm/2003">
 <defs>
  <style type="text/css">
   <![CDATA[
    .str0 {stroke:#373435;stroke-width:19.98;stroke-miterlimit:22.9256}
    .fil0 {fill:#0B1424}
    .fil1 {fill:#ED1858}
    .fil2 {fill:#F48047}
   ]]>
  </style>
    <mask id="id0">
  <linearGradient id="id1" gradientUnits="userSpaceOnUse" x1="8382.41" y1="1963.87" x2="3431.09" y2="1963.85">
   <stop offset="0" style="stop-opacity:1; stop-color:white"/>
   <stop offset="1" style="stop-opacity:0; stop-color:white"/>
  </linearGradient>
     <rect style="fill:url(#id1)" x="1268.23" y="1103.24" width="9469.31" height="1701.82"/>
    </mask>
 </defs>
 <g id="Layer_x0020_1">
  <metadata id="CorelCorpID_0Corel-Layer"/>
  <rect class="fil0 str0" x="9.99" y="9.98" width="11985.78" height="3888.32"/>
  <g id="_2453263377776">
   <path class="fil1" d="M2246.52 1705.14c0,0 -143.89,-198.7 -512.51,-186.37 -368.61,12.34 -445.35,360.4 -386.43,501.54 58.93,141.14 145.26,215.14 305.59,260.36 160.33,45.22 269.96,83.58 243.92,127.44 -26.04,43.85 -120.94,48.64 -203.84,4.45 -82.9,-44.2 -186.02,-139.09 -281.26,-85.65 -95.24,53.45 -143.2,173.35 -132.24,215.83 10.97,42.48 163.77,190.48 393.97,238.45 230.22,47.95 505.65,-26.04 591.99,-258.99 86.33,-232.95 -52.08,-426.17 -224.74,-482.36 -172.66,-56.18 -348.06,-94.54 -346.01,-151.41 2.06,-56.87 69.89,-71.26 154.86,-39.74 84.96,31.52 167.17,124.01 256.25,89.07 89.07,-34.94 112.4,-76.05 130.21,-138.4 17.81,-62.36 10.26,-94.24 10.26,-94.24zm8177.77 1043.1l-205.55 -202.81c0,0 -68.52,-81.53 -9.6,-149.36 58.92,-67.84 132.23,-129.5 132.23,-129.5 0,0 81.54,-60.99 156.9,17.81 53.85,56.28 129.47,134.23 168.27,174.17 65.71,67.6 90.92,200.64 11.26,267.76 -75.74,63.8 -174.1,98.8 -253.52,21.92zm0 -1198.23l-205.55 202.81c0,0 -68.52,81.53 -9.6,149.36 58.92,67.84 132.23,129.5 132.23,129.5 0,0 81.54,60.99 156.9,-17.81 53.85,-56.28 129.47,-134.23 168.27,-174.17 65.71,-67.6 90.92,-200.64 11.26,-267.76 -75.74,-63.8 -174.1,-98.8 -253.52,-21.92zm-638.96 35.6c168.1,165.58 336.19,331.16 504.28,496.74 43.93,48.83 40.13,93.49 0,134.98 -174.93,172.89 -349.88,345.79 -524.82,518.68 -186.77,117.07 -379.82,-101.4 -248.04,-282.29 99.12,-102.07 198.24,-204.14 297.37,-306.2 -99.12,-103.49 -198.24,-206.96 -297.37,-310.45 -142.22,-178.9 77.99,-416.2 268.57,-251.47zm-3438.89 1098.21l0 -646.78c0,0 -4.79,-201.43 159.64,-361.76 164.44,-160.33 357.66,-149.36 428.92,-146.63 71.26,2.74 145.25,30.14 201.43,63.04 56.18,32.88 93.19,68.52 93.19,68.52 0,0 161.7,-168.28 406.99,-132.79 245.28,35.5 475.5,272.57 475.5,512.37 0,239.81 0,561.84 0,561.84 0,0 -14.37,154.17 -116.45,158.27 -102.09,4.12 -213.78,0 -213.78,0 0,0 -52.76,-2.06 -51.39,-73.31 1.38,-71.26 2.75,-654.33 2.75,-654.33 0,0 -27.41,-145.25 -163.07,-142.51 -135.67,2.75 -158.96,113.75 -160.33,234.33 -1.37,120.59 -2.75,496.05 -2.75,496.05 0,0 2.06,146.98 -169.58,146.29 -171.64,-0.69 -203.84,-26.71 -205.21,-85.64 -1.38,-58.92 -4.79,-659.81 -4.79,-659.81 0,0 -23.29,-141.14 -150.74,-132.91 -127.44,8.22 -160.33,69.89 -163.07,216.51 -2.74,146.63 -3.43,491.28 -3.43,491.28 0,0 1.37,67.03 -56.86,122.64 -58.24,55.61 -151.77,48.46 -201.78,48.46 -29.36,0 -105.22,7.72 -105.22,-40.92 0,-29.47 0.02,-42.21 0.02,-42.21zm-1310.08 -1137.05l-212.41 0c0,0 -130.58,29.47 -94.55,135.66 36.02,106.2 378.22,1021.59 378.22,1021.59 0,0 15.07,67.83 86.33,67.83 71.26,0 171.29,19.87 214.46,-62.36 43.16,-82.21 133.61,-387.8 133.61,-387.8l119.22 372.73c0,0 25.35,79.54 100.03,79.54 74.69,0 150.05,0 150.05,0 0,0 43.17,6.11 64.4,-60.35 21.24,-66.46 360.42,-992.11 360.42,-992.11 17.81,-49.34 22.91,-162.99 -73.7,-165.38 -96.61,-2.4 -221.95,-4.87 -221.95,-4.87 0,0 -36.32,-5.83 -61.32,59.95 -25.01,65.77 -172.99,487.83 -172.99,487.83l-117.85 -319.28c0,0 -24.66,-67.14 -97.29,-64.4 -72.62,2.74 -148,-15.77 -174.03,33.57 -26.04,49.33 -137.72,354.24 -137.72,354.24l-185.69 -520.73c0,0 -9.6,-19.17 -26.73,-27.41 -17.13,-8.23 -30.51,-8.23 -30.51,-8.23zm-2671.56 -267.23l-5.47 1414.17c0,0 -2.75,56.87 53.44,68.52 56.18,11.65 180.89,17.82 233.64,-15.07 52.76,-32.89 97.97,-73.99 97.97,-153.48 0,-79.48 0,-549.51 0,-549.51 0,0 -1.35,-121.97 117.19,-151.42 118.54,-29.47 191.16,66.46 192.53,144.57 1.37,78.11 0,648.18 0,648.18 0,0 -7.51,86.07 62.38,86.07 69.88,0 179.51,17.39 236.38,-31.94 56.86,-49.33 77.45,-38.36 78.14,-158.96 0.68,-120.59 0,-632.11 0,-632.11 0,0 -3.4,-247.52 -173.32,-343.55 -169.92,-96.04 -281.27,-79.14 -351.15,-62.36 -69.88,16.79 -158.61,81.19 -158.61,81.19l0 -420.35c0,0 11.66,-86.33 -67.82,-89.06 -79.48,-2.75 -193.22,-3.43 -242.55,29.47 -49.33,32.88 -59.62,67.14 -65.44,85.99 -5.82,18.84 -7.29,49.66 -7.29,49.66zm6424.82 592.47c138.94,0 251.56,123.36 251.56,275.53 0,152.17 -112.63,275.53 -251.56,275.53 -138.95,0 -251.57,-123.36 -251.57,-275.53 0,-152.17 112.63,-275.53 251.57,-275.53zm-33.15 -349.51c112.26,0 216.93,35.52 305.21,96.84 18.24,-31.88 49.19,-69.55 94.99,-73.81 80.84,-7.54 170.49,0 170.49,0 0,0 73.43,2.05 72.06,78.79 -1.38,76.74 -2.72,1056.54 -2.72,1056.54 0,0 -2.4,84.96 -87.36,84.96 -84.97,0 -144.23,9.93 -180.21,-14.73 -25.94,-17.79 -57.58,-33.09 -82.45,-65.16 -84.99,55.04 -184.12,86.67 -290.02,86.67 -315.18,0 -570.68,-279.84 -570.68,-625.04 0,-345.2 255.51,-625.04 570.68,-625.04zm-4620.48 -13.53c347.63,0 629.43,285.9 629.43,638.57 0,352.67 -281.81,638.57 -629.43,638.57 -347.64,0 -629.44,-285.9 -629.44,-638.57 0,-352.67 281.81,-638.57 629.44,-638.57zm0 363.04c138.94,0 251.56,123.36 251.56,275.53 0,152.17 -112.63,275.53 -251.56,275.53 -138.94,0 -251.57,-123.36 -251.57,-275.53 0,-152.17 112.64,-275.53 251.57,-275.53z"/>
   <path class="fil2" style="mask:url(#id0)" d="M2246.52 1705.14c0,0 -143.89,-198.7 -512.51,-186.37 -368.61,12.34 -445.35,360.4 -386.43,501.54 58.93,141.14 145.26,215.14 305.59,260.36 160.33,45.22 269.96,83.58 243.92,127.44 -26.04,43.85 -120.94,48.64 -203.84,4.45 -82.9,-44.2 -186.02,-139.09 -281.26,-85.65 -95.24,53.45 -143.2,173.35 -132.24,215.83 10.97,42.48 163.77,190.48 393.97,238.45 230.22,47.95 505.65,-26.04 591.99,-258.99 86.33,-232.95 -52.08,-426.17 -224.74,-482.36 -172.66,-56.18 -348.06,-94.54 -346.01,-151.41 2.06,-56.87 69.89,-71.26 154.86,-39.74 84.96,31.52 167.17,124.01 256.25,89.07 89.07,-34.94 112.4,-76.05 130.21,-138.4 17.81,-62.36 10.26,-94.24 10.26,-94.24zm8177.77 1043.1l-205.55 -202.81c0,0 -68.52,-81.53 -9.6,-149.36 58.92,-67.84 132.23,-129.5 132.23,-129.5 0,0 81.54,-60.99 156.9,17.81 53.85,56.28 129.47,134.23 168.27,174.17 65.71,67.6 90.92,200.64 11.26,267.76 -75.74,63.8 -174.1,98.8 -253.52,21.92zm0 -1198.23l-205.55 202.81c0,0 -68.52,81.53 -9.6,149.36 58.92,67.84 132.23,129.5 132.23,129.5 0,0 81.54,60.99 156.9,-17.81 53.85,-56.28 129.47,-134.23 168.27,-174.17 65.71,-67.6 90.92,-200.64 11.26,-267.76 -75.74,-63.8 -174.1,-98.8 -253.52,-21.92zm-638.96 35.6c168.1,165.58 336.19,331.16 504.28,496.74 43.93,48.83 40.13,93.49 0,134.98 -174.93,172.89 -349.88,345.79 -524.82,518.68 -186.77,117.07 -379.82,-101.4 -248.04,-282.29 99.12,-102.07 198.24,-204.14 297.37,-306.2 -99.12,-103.49 -198.24,-206.96 -297.37,-310.45 -142.22,-178.9 77.99,-416.2 268.57,-251.47zm-3438.89 1098.21l0 -646.78c0,0 -4.79,-201.43 159.64,-361.76 164.44,-160.33 357.66,-149.36 428.92,-146.63 71.26,2.74 145.25,30.14 201.43,63.04 56.18,32.88 93.19,68.52 93.19,68.52 0,0 161.7,-168.28 406.99,-132.79 245.28,35.5 475.5,272.57 475.5,512.37 0,239.81 0,561.84 0,561.84 0,0 -14.37,154.17 -116.45,158.27 -102.09,4.12 -213.78,0 -213.78,0 0,0 -52.76,-2.06 -51.39,-73.31 1.38,-71.26 2.75,-654.33 2.75,-654.33 0,0 -27.41,-145.25 -163.07,-142.51 -135.67,2.75 -158.96,113.75 -160.33,234.33 -1.37,120.59 -2.75,496.05 -2.75,496.05 0,0 2.06,146.98 -169.58,146.29 -171.64,-0.69 -203.84,-26.71 -205.21,-85.64 -1.38,-58.92 -4.79,-659.81 -4.79,-659.81 0,0 -23.29,-141.14 -150.74,-132.91 -127.44,8.22 -160.33,69.89 -163.07,216.51 -2.74,146.63 -3.43,491.28 -3.43,491.28 0,0 1.37,67.03 -56.86,122.64 -58.24,55.61 -151.77,48.46 -201.78,48.46 -29.36,0 -105.22,7.72 -105.22,-40.92 0,-29.47 0.02,-42.21 0.02,-42.21zm-1310.08 -1137.05l-212.41 0c0,0 -130.58,29.47 -94.55,135.66 36.02,106.2 378.22,1021.59 378.22,1021.59 0,0 15.07,67.83 86.33,67.83 71.26,0 171.29,19.87 214.46,-62.36 43.16,-82.21 133.61,-387.8 133.61,-387.8l119.22 372.73c0,0 25.35,79.54 100.03,79.54 74.69,0 150.05,0 150.05,0 0,0 43.17,6.11 64.4,-60.35 21.24,-66.46 360.42,-992.11 360.42,-992.11 17.81,-49.34 22.91,-162.99 -73.7,-165.38 -96.61,-2.4 -221.95,-4.87 -221.95,-4.87 0,0 -36.32,-5.83 -61.32,59.95 -25.01,65.77 -172.99,487.83 -172.99,487.83l-117.85 -319.28c0,0 -24.66,-67.14 -97.29,-64.4 -72.62,2.74 -148,-15.77 -174.03,33.57 -26.04,49.33 -137.72,354.24 -137.72,354.24l-185.69 -520.73c0,0 -9.6,-19.17 -26.73,-27.41 -17.13,-8.23 -30.51,-8.23 -30.51,-8.23zm-2671.56 -267.23l-5.47 1414.17c0,0 -2.75,56.87 53.44,68.52 56.18,11.65 180.89,17.82 233.64,-15.07 52.76,-32.89 97.97,-73.99 97.97,-153.48 0,-79.48 0,-549.51 0,-549.51 0,0 -1.35,-121.97 117.19,-151.42 118.54,-29.47 191.16,66.46 192.53,144.57 1.37,78.11 0,648.18 0,648.18 0,0 -7.51,86.07 62.38,86.07 69.88,0 179.51,17.39 236.38,-31.94 56.86,-49.33 77.45,-38.36 78.14,-158.96 0.68,-120.59 0,-632.11 0,-632.11 0,0 -3.4,-247.52 -173.32,-343.55 -169.92,-96.04 -281.27,-79.14 -351.15,-62.36 -69.88,16.79 -158.61,81.19 -158.61,81.19l0 -420.35c0,0 11.66,-86.33 -67.82,-89.06 -79.48,-2.75 -193.22,-3.43 -242.55,29.47 -49.33,32.88 -59.62,67.14 -65.44,85.99 -5.82,18.84 -7.29,49.66 -7.29,49.66zm6424.82 592.47c138.94,0 251.56,123.36 251.56,275.53 0,152.17 -112.63,275.53 -251.56,275.53 -138.95,0 -251.57,-123.36 -251.57,-275.53 0,-152.17 112.63,-275.53 251.57,-275.53zm-33.15 -349.51c112.26,0 216.93,35.52 305.21,96.84 18.24,-31.88 49.19,-69.55 94.99,-73.81 80.84,-7.54 170.49,0 170.49,0 0,0 73.43,2.05 72.06,78.79 -1.38,76.74 -2.72,1056.54 -2.72,1056.54 0,0 -2.4,84.96 -87.36,84.96 -84.97,0 -144.23,9.93 -180.21,-14.73 -25.94,-17.79 -57.58,-33.09 -82.45,-65.16 -84.99,55.04 -184.12,86.67 -290.02,86.67 -315.18,0 -570.68,-279.84 -570.68,-625.04 0,-345.2 255.51,-625.04 570.68,-625.04zm-4620.48 -13.53c347.63,0 629.43,285.9 629.43,638.57 0,352.67 -281.81,638.57 -629.43,638.57 -347.64,0 -629.44,-285.9 -629.44,-638.57 0,-352.67 281.81,-638.57 629.44,-638.57zm0 363.04c138.94,0 251.56,123.36 251.56,275.53 0,152.17 -112.63,275.53 -251.56,275.53 -138.94,0 -251.57,-123.36 -251.57,-275.53 0,-152.17 112.64,-275.53 251.57,-275.53z"/>
  </g>
 </g>
</svg>
